# xmcd CD database file
#
# Track frame offsets:
#	150
#	21867
#	41502
#	59712
#	77025
#	97050
#	116687
#	138302
#	159375
#	180687
#	208650
#
# Disc length: 2795 seconds
#
# Revision: 0
# Processed by: cddbd v1.5PL3 Copyright (c) Steve Scherf et al.
# Submitted via: CDex 1.50beta8
#
DISCID=980ae90b
DTITLE=千葉美加 - 行くね
DYEAR=1989
DGENRE=JPop
TTITLE0=SOMEDAY SOMEWHERE SOMEONE
TTITLE1=BRAND-NEW TOMORROW
TTITLE2=気持ちが跳ねた日
TTITLE3=知らないッ
TTITLE4=9月の海
TTITLE5=行くね
TTITLE6=チャイルド・フェンス
TTITLE7=キライになりたい
TTITLE8=ときめきパフォーマンス
TTITLE9=明日へのプリズム
TTITLE10=美加からのメッセージ
EXTD=YEAR: 1989
EXTT0=
EXTT1=
EXTT2=
EXTT3=
EXTT4=
EXTT5=
EXTT6=
EXTT7=
EXTT8=
EXTT9=
EXTT10=
PLAYORDER=
